<?xml version="1.0" standalone="no"?>
<!DOCTYPE svg PUBLIC "-//W3C//DTD SVG 20010904//EN"
 "http://www.w3.org/TR/2001/REC-SVG-20010904/DTD/svg10.dtd">
<svg version="1.0" xmlns="http://www.w3.org/2000/svg"
 width="512.000000pt" height="512.000000pt" viewBox="0 0 512.000000 512.000000"
 preserveAspectRatio="xMidYMid meet">
<metadata>
Created by potrace 1.14, written by Peter Selinger 2001-2017
</metadata>
<g transform="translate(0.000000,512.000000) scale(0.100000,-0.100000)"
fill="#000000" stroke="none">
<path d="M385 5101 c-45 -20 -91 -69 -112 -118 -20 -48 -20 -4798 0 -4846 21
-49 67 -98 112 -118 38 -18 120 -19 2009 -19 l1970 0 43 21 c51 25 96 76 112
128 6 23 11 111 11 215 l0 176 50 0 c128 0 215 45 256 133 l24 52 0 430 c0
273 -4 444 -11 468 -13 49 -73 115 -124 138 -27 13 -64 19 -117 19 l-78 0 0
39 0 38 83 5 c57 3 94 11 124 26 50 26 100 84 113 132 6 20 10 219 10 471 l0
437 -28 53 c-43 82 -99 113 -214 117 l-88 4 0 39 0 39 68 0 c90 0 136 14 184
58 79 71 78 60 78 563 l0 447 -28 53 c-43 82 -99 113 -214 117 l-88 4 0 262 0
262 -27 55 c-19 35 -43 64 -71 84 l-44 30 -1981 2 c-1906 3 -1984 2 -2022 -16z
m2752 -1427 c427 -63 716 -319 799 -709 99 -464 -265 -965 -721 -992 -148 -9
-241 31 -261 112 -6 23 -6 23 -65 -20 -79 -58 -156 -87 -252 -93 -265 -17
-476 193 -478 473 -3 310 203 630 464 723 60 22 89 26 177 26 137 -1 199 -23
274 -99 l53 -54 12 65 13 64 149 0 c82 0 149 -2 149 -4 0 -2 -39 -183 -86
-402 -87 -409 -109 -558 -85 -602 42 -78 255 67 360 245 78 131 94 195 99 378
5 191 -8 258 -70 378 -141 271 -445 406 -844 377 -486 -36 -808 -327 -889
-804 -17 -103 -20 -344 -4 -432 64 -365 334 -616 742 -691 127 -23 397 -23
531 1 234 42 424 137 532 265 26 31 26 31 130 31 57 0 104 -3 104 -6 0 -15
-73 -104 -132 -160 -140 -133 -303 -212 -552 -266 -87 -19 -133 -22 -326 -22
-312 -1 -477 32 -695 138 -286 140 -458 355 -537 673 -27 107 -32 354 -9 468
48 242 158 454 320 615 265 264 681 386 1098 324z"/>
<path d="M2749 3047 c-114 -43 -211 -169 -260 -339 -29 -103 -38 -319 -16
-405 23 -87 58 -137 120 -168 59 -29 93 -31 167 -9 74 22 163 111 213 214 59
120 79 213 81 370 0 74 -2 151 -7 171 -11 54 -61 122 -107 148 -51 28 -141 37
-191 18z"/>
</g>
</svg>
